<svg width="517" height="374" viewBox="0 0 517 374" fill="none" xmlns="http://www.w3.org/2000/svg">
<path d="M201.271 24.2752C200.105 12.1279 187.436 0.900391 161.578 0.900391C135.718 0.900391 120.45 25.7471 123.945 53.354C127.44 80.9609 89.7286 76.7288 102.237 112.986C114.746 149.243 185.321 150.827 210.005 137.428C234.688 124.029 222.547 98.4417 215.557 86.0198C208.567 73.6001 212.187 31.4533 201.271 24.2752Z" fill="#292A5D" style="fill:#292A5D;fill:color(display-p3 0.1608 0.1647 0.3647);fill-opacity:1;"/>
<path d="M229.603 249.554L209.366 205.193L221.876 311.575H91.1345L96.4918 157.709L73.6021 140.412C83.3515 118.694 107.82 95.7878 157.383 96.7901C187.663 97.4043 204.932 106.353 215.75 118.725C224.431 128.645 228.963 140.763 232.73 152.557C241.194 179.062 256.76 244.341 256.76 244.341L229.603 249.554Z" fill="white" style="fill:white;fill-opacity:1;"/>
<path d="M256.76 244.34L229.603 249.554L209.366 205.193C209.366 205.193 207.405 189.404 207.405 181.9C207.405 174.397 221.386 158.199 212.313 142.987C205.423 130.094 208.999 119.07 215.75 118.724C224.431 128.644 228.963 140.762 232.73 152.556C241.194 179.062 256.76 244.34 256.76 244.34Z" fill="#9CB3F8" style="fill:#9CB3F8;fill:color(display-p3 0.6118 0.7020 0.9725);fill-opacity:1;"/>
<path d="M145.628 94.2694C145.628 94.2694 136.795 98.2259 134.956 102.275C133.116 106.325 137.807 121.14 147.189 125.834C156.57 130.527 160.088 116.999 162.929 116.999C165.77 116.999 175.795 127.581 177.083 125.005C178.371 122.429 185.626 107.153 174.501 102.551" fill="#9CB3F8" style="fill:#9CB3F8;fill:color(display-p3 0.6118 0.7020 0.9725);fill-opacity:1;"/>
<path d="M159.909 115.973H159.914C167.65 115.973 174.401 110.794 176.45 103.384C176.512 103.147 176.574 102.904 176.631 102.656L178.84 93.0318L146.954 77.6908L145.628 83.7789L143.15 95.1592C140.818 105.857 148.967 115.973 159.909 115.973Z" fill="#F5BAB7" style="fill:#F5BAB7;fill:color(display-p3 0.9608 0.7294 0.7176);fill-opacity:1;"/>
<path d="M145.628 83.7779C149.679 94.7349 156.724 104.5 176.45 103.384C176.512 103.147 176.574 102.904 176.631 102.656L178.84 93.0318L146.954 77.6908L145.628 83.7779Z" fill="#DA7A76" style="fill:#DA7A76;fill:color(display-p3 0.8549 0.4784 0.4627);fill-opacity:1;"/>
<path d="M198.066 24.239C169.521 62.323 146.832 40.0527 146.832 40.0527C146.832 40.0527 147.568 45.4822 145.637 50.728C143.706 55.9738 143.706 61.8627 141.59 62.2312C139.474 62.5997 140.026 52.5076 137.481 50.5443C134.937 48.581 122.826 50.3606 125.954 60.4826C129.081 70.6056 140.763 65.8202 140.763 65.8202L143.026 75.679C143.334 77.0219 143.778 78.3308 144.351 79.5839C149.002 89.7565 159.155 96.2802 170.336 96.2802C182.572 96.2802 193.45 88.4858 197.39 76.896C197.839 75.5758 198.067 74.1916 198.067 72.797V24.239H198.066Z" fill="#F6C9C5" style="fill:#F6C9C5;fill:color(display-p3 0.9647 0.7882 0.7725);fill-opacity:1;"/>
<path d="M174.058 81.3315C174.058 84.0442 171.86 86.2439 169.148 86.2439C166.436 86.2439 164.238 84.0442 164.238 81.3315" fill="white" style="fill:white;fill-opacity:1;"/>
<path d="M132.345 62.8288C136.898 63.1973 136.254 56.8471 133.357 55.6053C130.459 54.3625 129.217 56.6633 129.217 56.6633" stroke="#DA7A76" style="stroke:#DA7A76;stroke:color(display-p3 0.8549 0.4784 0.4627);stroke-opacity:1;" stroke-width="1.54875" stroke-miterlimit="10" stroke-linecap="round" stroke-linejoin="round"/>
<path d="M174.704 52.9411C174.704 52.9411 178.444 68.5855 178.076 72.0827C177.708 75.5799 170.901 73.6476 170.901 73.6476" stroke="#DA7A76" style="stroke:#DA7A76;stroke:color(display-p3 0.8549 0.4784 0.4627);stroke-opacity:1;" stroke-width="1.54875" stroke-miterlimit="10" stroke-linecap="round" stroke-linejoin="round"/>
<path d="M159.513 62.8443C159.513 64.2677 160.666 65.4207 162.089 65.4207C163.511 65.4207 164.664 64.2667 164.664 62.8443C164.664 61.4219 163.511 60.2679 162.089 60.2679C160.666 60.2679 159.513 61.4209 159.513 62.8443Z" fill="#292A5D" style="fill:#292A5D;fill:color(display-p3 0.1608 0.1647 0.3647);fill-opacity:1;"/>
<path d="M186.739 62.8443C186.739 64.2677 187.892 65.4207 189.315 65.4207C190.737 65.4207 191.89 64.2667 191.89 62.8443C191.89 61.4219 190.737 60.2679 189.315 60.2679C187.892 60.2679 186.739 61.4209 186.739 62.8443Z" fill="#292A5D" style="fill:#292A5D;fill:color(display-p3 0.1608 0.1647 0.3647);fill-opacity:1;"/>
<path d="M167.412 52.9411C167.412 52.9411 161.433 47.875 154.994 53.4892" stroke="#292A5D" style="stroke:#292A5D;stroke:color(display-p3 0.1608 0.1647 0.3647);stroke-opacity:1;" stroke-width="2.58119" stroke-miterlimit="10" stroke-linecap="round" stroke-linejoin="round"/>
<path d="M195.268 52.9411C195.268 52.9411 189.289 47.875 182.85 53.4892" stroke="#292A5D" style="stroke:#292A5D;stroke:color(display-p3 0.1608 0.1647 0.3647);stroke-opacity:1;" stroke-width="2.58119" stroke-miterlimit="10" stroke-linecap="round" stroke-linejoin="round"/>
<path d="M151.217 71.8009C151.217 74.4269 153.345 76.5554 155.97 76.5554C158.595 76.5554 160.722 74.4269 160.722 71.8009C160.722 69.1749 158.595 67.0465 155.97 67.0465C153.345 67.0465 151.217 69.1749 151.217 71.8009Z" fill="#F5BAB7" style="fill:#F5BAB7;fill:color(display-p3 0.9608 0.7294 0.7176);fill-opacity:1;"/>
<path d="M186.692 71.8009C186.692 74.4269 188.819 76.5554 191.444 76.5554C194.069 76.5554 196.197 74.4269 196.197 71.8009C196.197 69.1749 194.069 67.0465 191.444 67.0465C188.819 67.0465 186.692 69.1749 186.692 71.8009Z" fill="#F5BAB7" style="fill:#F5BAB7;fill:color(display-p3 0.9608 0.7294 0.7176);fill-opacity:1;"/>
<path d="M172.823 64.2679C172.838 58.802 168.421 54.359 162.958 54.3442C157.495 54.3295 153.055 58.7486 153.04 64.2145C153.025 69.6805 157.442 74.1235 162.905 74.1382C168.368 74.153 172.809 69.7339 172.823 64.2679Z" stroke="white" style="stroke:white;stroke-opacity:1;" stroke-width="1.03243" stroke-miterlimit="10" stroke-linecap="round" stroke-linejoin="round"/>
<path d="M200.042 64.259C200.057 58.793 195.64 54.35 190.177 54.3353C184.714 54.3205 180.273 58.7396 180.258 64.2055C180.243 69.6715 184.66 74.1145 190.123 74.1292C195.586 74.144 200.027 69.7249 200.042 64.259Z" stroke="white" style="stroke:white;stroke-opacity:1;" stroke-width="1.03243" stroke-miterlimit="10" stroke-linecap="round" stroke-linejoin="round"/>
<path d="M172.403 61.3878H180.682" stroke="white" style="stroke:white;stroke-opacity:1;" stroke-width="1.03243" stroke-miterlimit="10" stroke-linecap="round" stroke-linejoin="round"/>
<path d="M153.702 60.6735L140.751 55.9872" stroke="white" style="stroke:white;stroke-opacity:1;" stroke-width="1.03243" stroke-miterlimit="10" stroke-linecap="round" stroke-linejoin="round"/>
<path d="M189.449 140.381L185.965 171.455L184.138 187.742L179.963 224.945C179.669 227.558 177.315 229.675 174.698 229.675H115.738C113.126 229.675 111.242 227.558 111.536 224.945L112.218 218.878L116.228 183.104L121.023 140.38C121.317 137.767 123.675 135.645 126.287 135.645H185.248C187.864 135.645 189.743 137.767 189.449 140.381Z" fill="#F3A34E" style="fill:#F3A34E;fill:color(display-p3 0.9529 0.6392 0.3059);fill-opacity:1;"/>
<path d="M162.735 139.902H147.848C145.499 139.902 143.809 137.997 144.072 135.647C144.335 133.297 146.454 131.392 148.803 131.392H163.69C166.039 131.392 167.729 133.298 167.466 135.647C167.201 137.997 165.083 139.902 162.735 139.902Z" fill="#292A5D" style="fill:#292A5D;fill:color(display-p3 0.1608 0.1647 0.3647);fill-opacity:1;"/>
<path d="M185.965 171.455L184.138 187.742L157.388 204.828L127.83 215.873L112.218 218.878L116.228 183.104C127.035 183.512 143.288 183.894 146.818 182.66C152.217 180.78 161.047 169.003 164.97 169.735C168.897 170.474 168.025 178.57 168.025 178.57C168.025 178.57 179.736 175.664 185.965 171.455Z" fill="#EF7747" style="fill:#EF7747;fill:color(display-p3 0.9373 0.4667 0.2784);fill-opacity:1;"/>
<path d="M152.707 189C152.707 189 161.659 168.878 164.971 169.737C168.282 170.595 163.008 185.688 163.008 185.688C163.008 185.688 183.244 175.381 185.942 172.559C188.641 169.737 189.498 185.933 184.593 197.343C179.688 208.755 161.782 214.766 155.159 218.57" fill="#F5BAB7" style="fill:#F5BAB7;fill:color(display-p3 0.9608 0.7294 0.7176);fill-opacity:1;"/>
<path d="M157.383 219.182C157.631 220.148 127.071 232.659 97.9575 244.34C76.0124 253.138 53.1692 233.79 58.222 210.683L73.6021 140.411C86.1127 113.173 108.558 129.366 108.187 148.879C108.011 158.241 105.312 171.083 102.546 181.9C99.5988 193.451 96.5847 202.705 96.4969 202.984H96.5021C97.2969 202.694 151.943 182.763 153.605 185.685C155.282 188.635 156.913 217.344 157.383 219.182Z" fill="#9CB3F8" style="fill:#9CB3F8;fill:color(display-p3 0.6118 0.7020 0.9725);fill-opacity:1;"/>
<path d="M102.546 181.901C99.5988 193.452 96.5847 202.706 96.4969 202.985L96.4918 202.99L78.753 208.696L102.546 181.901Z" fill="#7281F6" style="fill:#7281F6;fill:color(display-p3 0.4471 0.5059 0.9647);fill-opacity:1;"/>
<path d="M286.354 24.2411C286.354 29.6789 284.151 34.5995 280.589 38.1679C277.028 41.7311 272.11 43.936 266.67 43.936H245.592L236.591 52.9411V43.936H235.264C224.39 43.936 215.58 35.1166 215.58 24.2421C215.58 18.7992 217.784 13.8786 221.345 10.3153C224.906 6.75207 229.83 4.54724 235.264 4.54724H266.67C277.544 4.54621 286.354 13.3604 286.354 24.2411Z" fill="white" style="fill:white;fill-opacity:1;"/>
<path d="M237.109 26.416C238.311 26.416 239.286 25.4413 239.286 24.239C239.286 23.0367 238.311 22.062 237.109 22.062C235.907 22.062 234.932 23.0367 234.932 24.239C234.932 25.4413 235.907 26.416 237.109 26.416Z" fill="#C6D2EB" style="fill:#C6D2EB;fill:color(display-p3 0.7765 0.8235 0.9216);fill-opacity:1;"/>
<path d="M250.967 26.416C252.169 26.416 253.144 25.4413 253.144 24.239C253.144 23.0367 252.169 22.0621 250.967 22.0621C249.764 22.0621 248.79 23.0367 248.79 24.239C248.79 25.4413 249.764 26.416 250.967 26.416Z" fill="#C6D2EB" style="fill:#C6D2EB;fill:color(display-p3 0.7765 0.8235 0.9216);fill-opacity:1;"/>
<path d="M267.002 24.239C267.002 25.4416 266.028 26.417 264.825 26.417C263.623 26.417 262.648 25.4426 262.648 24.239C262.648 23.0355 263.623 22.061 264.825 22.061C266.028 22.061 267.002 23.0365 267.002 24.239Z" fill="#C6D2EB" style="fill:#C6D2EB;fill:color(display-p3 0.7765 0.8235 0.9216);fill-opacity:1;"/>
<path d="M303.797 241.768C303.797 241.768 299.394 254.76 291.343 260.76C289.516 262.124 285.459 263.966 280.283 266.006C262.663 272.951 232.062 282.126 232.062 282.126L215.578 263.702L261.243 236.847L267.494 233.17L303.797 241.768Z" fill="#F5BAB7" style="fill:#F5BAB7;fill:color(display-p3 0.9608 0.7294 0.7176);fill-opacity:1;"/>
<path d="M303.797 241.768C303.797 241.768 299.394 254.76 291.343 260.76C289.516 262.124 285.459 263.966 280.283 266.006L261.243 236.847L267.494 233.17L303.797 241.768Z" fill="#DA7A76" style="fill:#DA7A76;fill:color(display-p3 0.8549 0.4784 0.4627);fill-opacity:1;"/>
<path d="M463.498 165.692L453 189.538L445.836 205.809L443.87 308.632H319.27L320.168 240.844L320.436 220.474C320.436 220.474 322.042 168.022 330.072 147.212C344.787 141.945 362.954 138.47 362.954 138.47H403.706C403.706 138.47 454.357 142.622 463.498 165.692Z" fill="#EBF0FD" style="fill:#EBF0FD;fill:color(display-p3 0.9216 0.9412 0.9922);fill-opacity:1;"/>
<path d="M453 189.538L445.836 205.809L443.87 308.632H319.27L320.168 240.844C327.203 243.152 353.106 249.622 382.628 232.065C417.285 211.452 417.383 163.353 440.195 157.709L453 189.538Z" fill="#DAE3F6" style="fill:#DAE3F6;fill:color(display-p3 0.8549 0.8902 0.9647);fill-opacity:1;"/>
<path d="M414.56 287.038C413.12 287.353 411.066 287.729 408.552 288.148C391.356 291.014 352.745 295.874 344.286 295.874C334.599 295.874 324.39 292.068 322.64 291.794C320.896 291.516 307.559 302.101 304.339 298.693C301.201 295.378 308.715 287.87 309.108 287.483C308.633 287.89 296.917 297.898 294.037 294.83C291.131 291.743 300.313 281.224 300.561 280.939C300.246 281.208 288.675 291.014 286.863 287.925C285.021 284.797 302.589 264.214 307.007 262.742C311.42 261.27 338.155 273.539 339.626 273.297C340.875 273.085 377.482 261.317 388.811 257.672C390.891 257.006 392.119 256.609 392.119 256.609C392.119 256.609 426.09 266.668 426.58 268.144C427.071 269.616 425.842 284.585 414.56 287.038Z" fill="#F5BAB7" style="fill:#F5BAB7;fill:color(display-p3 0.9608 0.7294 0.7176);fill-opacity:1;"/>
<path d="M297.107 285.364L309.108 271.179" stroke="#DA7A76" style="stroke:#DA7A76;stroke:color(display-p3 0.8549 0.4784 0.4627);stroke-opacity:1;" stroke-width="1.54875" stroke-miterlimit="10" stroke-linecap="round" stroke-linejoin="round"/>
<path d="M309.108 287.482L320.741 277.988" stroke="#DA7A76" style="stroke:#DA7A76;stroke:color(display-p3 0.8549 0.4784 0.4627);stroke-opacity:1;" stroke-width="1.54875" stroke-miterlimit="10" stroke-linecap="round" stroke-linejoin="round"/>
<path d="M414.56 287.038C413.12 287.353 411.066 287.729 408.552 288.148L388.811 257.673C390.891 257.007 392.119 256.61 392.119 256.61C392.119 256.61 426.09 266.669 426.58 268.145C427.071 269.616 425.842 284.585 414.56 287.038Z" fill="#DA7A76" style="fill:#DA7A76;fill:color(display-p3 0.8549 0.4784 0.4627);fill-opacity:1;"/>
<path d="M417.529 182.743L392.117 256.608L426.668 274.768C426.668 274.768 463.372 196.363 465.947 177.59C468.523 158.816 438.279 135.994 417.529 182.743Z" fill="white" style="fill:white;fill-opacity:1;"/>
<path d="M423.183 279.413L389.289 258.6C386.759 257.046 385.967 253.737 387.52 251.207L390.365 246.569C391.918 244.037 395.23 243.244 397.761 244.799L431.655 265.612C434.185 267.165 434.976 270.475 433.424 273.005L430.579 277.642C429.027 280.174 425.715 280.967 423.183 279.413Z" fill="#EBF0FD" style="fill:#EBF0FD;fill:color(display-p3 0.9216 0.9412 0.9922);fill-opacity:1;"/>
<path d="M330.072 147.212C322.042 168.022 320.436 220.474 320.436 220.474L299.647 249.555L268.371 233.724C268.371 233.724 305.35 167.284 312.71 156.977C315.28 153.378 322.176 150.036 330.072 147.212Z" fill="white" style="fill:white;fill-opacity:1;"/>
<path d="M299.439 255.812L265.545 234.999C263.015 233.446 262.223 230.136 263.775 227.606L266.62 222.968C268.174 220.436 271.485 219.644 274.016 221.198L307.91 242.011C310.44 243.564 311.232 246.874 309.68 249.404L306.835 254.042C305.282 256.574 301.97 257.365 299.439 255.812Z" fill="#EBF0FD" style="fill:#EBF0FD;fill:color(display-p3 0.9216 0.9412 0.9922);fill-opacity:1;"/>
<path d="M372.618 134.337C364.401 134.337 360.741 139.675 360.271 149.982C359.801 160.289 362.929 164.522 367.528 160.289C372.126 156.055 376.2 150.651 378.521 150.81C380.84 150.97 385.188 162.621 394.202 161.915C403.217 161.208 411.863 139.443 396.962 131.277" fill="white" style="fill:white;fill-opacity:1;"/>
<path d="M417.47 82.3193C416.551 93.9164 406.982 101.827 403.488 110.296C399.994 118.759 390.978 121.707 385.646 116.095L345.539 72.38C338.649 70.6552 334.221 68.2439 331.496 65.6313C326.66 60.9997 327.217 55.7477 328.982 52.6862C331.687 48.0029 339.857 52.49 340.197 52.681C339.877 52.392 332.729 45.8858 335.79 38.1503C338.917 30.2342 351.087 40.3552 360.274 40.541C369.456 40.7268 400.547 37.4123 407.535 47.3516C410.781 51.9677 411.184 56.6974 410.683 60.4464C410.105 64.7684 408.324 67.7783 408.324 67.7783C408.324 67.7783 418.389 70.7223 417.47 82.3193Z" fill="#292A5D" style="fill:#292A5D;fill:color(display-p3 0.1608 0.1647 0.3647);fill-opacity:1;"/>
<path d="M417.47 82.3193C416.551 93.9164 406.982 101.827 403.488 110.296C399.994 118.759 390.978 121.707 385.646 116.095L345.539 72.38C338.649 70.6552 334.221 68.2439 331.496 65.6313C328.951 57.7668 338.061 56.2597 345.849 59.6826C355.903 64.0974 380.924 65.6932 392.449 65.941C400.851 66.1165 407.628 62.45 410.683 60.4464C410.105 64.7684 408.324 67.7783 408.324 67.7783C408.324 67.7783 418.389 70.7223 417.47 82.3193Z" fill="#141644" style="fill:#141644;fill:color(display-p3 0.0784 0.0863 0.2667);fill-opacity:1;"/>
<path d="M380.846 150.97H380.841C373.105 150.97 366.354 145.791 364.305 138.381C364.243 138.143 364.181 137.901 364.124 137.653L361.915 128.027L393.801 112.686L395.127 118.774L397.605 130.155C399.937 140.854 391.788 150.97 380.846 150.97Z" fill="#F5BAB7" style="fill:#F5BAB7;fill:color(display-p3 0.9608 0.7294 0.7176);fill-opacity:1;"/>
<path d="M395.127 118.774C391.076 129.732 384.031 139.496 364.305 138.381C364.243 138.143 364.181 137.901 364.124 137.653L361.915 128.027L393.801 112.686L395.127 118.774Z" fill="#DA7A76" style="fill:#DA7A76;fill:color(display-p3 0.8549 0.4784 0.4627);fill-opacity:1;"/>
<path d="M342.689 64.9273C349.679 79.7429 393.923 75.0504 393.923 75.0504C393.923 75.0504 393.187 80.4799 395.119 85.7257C397.05 90.9714 397.05 96.8603 399.166 97.2288C401.282 97.5973 400.73 87.5052 403.275 85.5419C405.819 83.5786 417.93 85.3582 414.803 95.4802C411.675 105.603 399.993 100.818 399.993 100.818L397.731 110.677C397.422 112.02 396.978 113.328 396.405 114.582C391.754 124.754 381.601 131.278 370.42 131.278C358.184 131.278 347.306 123.483 343.367 111.894C342.918 110.573 342.69 109.189 342.69 107.795V64.9273H342.689Z" fill="#F6C9C5" style="fill:#F6C9C5;fill:color(display-p3 0.9647 0.7882 0.7725);fill-opacity:1;"/>
<path d="M408.409 97.8254C403.856 98.1939 404.5 91.8437 407.397 90.6019C410.295 89.3591 411.537 91.6599 411.537 91.6599" stroke="#DA7A76" style="stroke:#DA7A76;stroke:color(display-p3 0.8549 0.4784 0.4627);stroke-opacity:1;" stroke-width="1.54875" stroke-miterlimit="10" stroke-linecap="round" stroke-linejoin="round"/>
<path d="M366.052 87.9377C366.052 87.9377 362.311 103.582 362.679 107.079C363.047 110.577 369.854 108.644 369.854 108.644" stroke="#DA7A76" style="stroke:#DA7A76;stroke:color(display-p3 0.8549 0.4784 0.4627);stroke-opacity:1;" stroke-width="1.54875" stroke-miterlimit="10" stroke-linecap="round" stroke-linejoin="round"/>
<path d="M382.608 97.3196C382.608 98.7431 381.455 99.8961 380.033 99.8961C378.611 99.8961 377.458 98.742 377.458 97.3196C377.458 95.8962 378.611 94.7432 380.033 94.7432C381.455 94.7432 382.608 95.8962 382.608 97.3196Z" fill="#292A5D" style="fill:#292A5D;fill:color(display-p3 0.1608 0.1647 0.3647);fill-opacity:1;"/>
<path d="M355.382 97.3196C355.382 98.7431 354.229 99.8961 352.807 99.8961C351.385 99.8961 350.232 98.742 350.232 97.3196C350.232 95.8962 351.385 94.7432 352.807 94.7432C354.229 94.7432 355.382 95.8962 355.382 97.3196Z" fill="#292A5D" style="fill:#292A5D;fill:color(display-p3 0.1608 0.1647 0.3647);fill-opacity:1;"/>
<path d="M375.71 87.9377C375.71 87.9377 381.689 82.8716 388.128 88.4858" stroke="#292A5D" style="stroke:#292A5D;stroke:color(display-p3 0.1608 0.1647 0.3647);stroke-opacity:1;" stroke-width="2.58119" stroke-miterlimit="10" stroke-linecap="round" stroke-linejoin="round"/>
<path d="M347.854 87.9377C347.854 87.9377 353.833 82.8716 360.272 88.4858" stroke="#292A5D" style="stroke:#292A5D;stroke:color(display-p3 0.1608 0.1647 0.3647);stroke-opacity:1;" stroke-width="2.58119" stroke-miterlimit="10" stroke-linecap="round" stroke-linejoin="round"/>
<path d="M371.233 116.737C371.233 116.737 375.854 118.454 379.001 115.019" stroke="#DA7A76" style="stroke:#DA7A76;stroke:color(display-p3 0.8549 0.4784 0.4627);stroke-opacity:1;" stroke-width="1.54875" stroke-miterlimit="10" stroke-linecap="round" stroke-linejoin="round"/>
<path d="M389.538 106.799C389.538 109.425 387.41 111.553 384.785 111.553C382.16 111.553 380.033 109.425 380.033 106.799C380.033 104.173 382.16 102.044 384.785 102.044C387.41 102.043 389.538 104.173 389.538 106.799Z" fill="#F5BAB7" style="fill:#F5BAB7;fill:color(display-p3 0.9608 0.7294 0.7176);fill-opacity:1;"/>
<path d="M354.063 106.799C354.063 109.425 351.936 111.553 349.311 111.553C346.686 111.553 344.559 109.425 344.559 106.799C344.559 104.173 346.686 102.044 349.311 102.044C351.935 102.043 354.063 104.173 354.063 106.799Z" fill="#F5BAB7" style="fill:#F5BAB7;fill:color(display-p3 0.9608 0.7294 0.7176);fill-opacity:1;"/>
<path d="M348.26 298.945H255.118C252.444 298.945 250.276 301.113 250.276 303.788V303.79C250.276 306.464 252.444 308.632 255.118 308.632H348.26C350.935 308.632 353.102 306.464 353.102 303.79V303.788C353.102 301.113 350.934 298.945 348.26 298.945Z" fill="#141644" style="fill:#141644;fill:color(display-p3 0.0784 0.0863 0.2667);fill-opacity:1;"/>
<path d="M262.669 308.632H115.868C113.734 308.632 111.742 306.902 111.417 304.767L96.5361 206.853C96.212 204.719 97.6788 202.989 99.8124 202.989H246.614C248.747 202.989 250.739 204.719 251.065 206.853L265.945 304.767C266.269 306.901 264.802 308.632 262.669 308.632Z" fill="#141644" style="fill:#141644;fill:color(display-p3 0.0784 0.0863 0.2667);fill-opacity:1;"/>
<path d="M257.314 308.632H110.512C108.379 308.632 106.387 306.902 106.062 304.767L91.181 206.853C90.8568 204.719 92.3236 202.989 94.4572 202.989H241.258C243.392 202.989 245.384 204.719 245.709 206.853L260.59 304.767C260.914 306.901 259.447 308.632 257.314 308.632Z" fill="#292A5D" style="fill:#292A5D;fill:color(display-p3 0.1608 0.1647 0.3647);fill-opacity:1;"/>
<path d="M180.675 264.818H174.973C171.575 264.818 168.227 262.062 167.496 258.662L166.268 252.957C165.536 249.557 167.699 246.801 171.097 246.801H176.799C180.197 246.801 183.545 249.557 184.276 252.957L185.504 258.662C186.235 262.062 184.073 264.818 180.675 264.818Z" fill="#141644" style="fill:#141644;fill:color(display-p3 0.0784 0.0863 0.2667);fill-opacity:1;"/>
<path d="M275.718 305.044H270.501C269.809 305.044 269.247 304.482 269.247 303.79V303.789C269.247 303.096 269.809 302.535 270.501 302.535H275.718C276.411 302.535 276.972 303.096 276.972 303.789V303.79C276.972 304.482 276.411 305.044 275.718 305.044Z" fill="#292A5D" style="fill:#292A5D;fill:color(display-p3 0.1608 0.1647 0.3647);fill-opacity:1;"/>
<path d="M286.02 305.044H280.803C280.11 305.044 279.549 304.482 279.549 303.79V303.789C279.549 303.096 280.11 302.535 280.803 302.535H286.02C286.713 302.535 287.274 303.096 287.274 303.789V303.79C287.274 304.482 286.713 305.044 286.02 305.044Z" fill="#292A5D" style="fill:#292A5D;fill:color(display-p3 0.1608 0.1647 0.3647);fill-opacity:1;"/>
<path d="M296.322 305.044H291.105C290.412 305.044 289.851 304.482 289.851 303.79V303.789C289.851 303.096 290.412 302.535 291.105 302.535H296.322C297.014 302.535 297.576 303.096 297.576 303.789V303.79C297.577 304.482 297.014 305.044 296.322 305.044Z" fill="#292A5D" style="fill:#292A5D;fill:color(display-p3 0.1608 0.1647 0.3647);fill-opacity:1;"/>
<path d="M303.923 304.866C304.518 304.866 305.001 304.384 305.001 303.789C305.001 303.194 304.518 302.711 303.923 302.711C303.328 302.711 302.845 303.194 302.845 303.789C302.845 304.384 303.328 304.866 303.923 304.866Z" fill="#292A5D" style="fill:#292A5D;fill:color(display-p3 0.1608 0.1647 0.3647);fill-opacity:1;"/>
<path d="M516.314 308.632H0.448242V373.518H516.314V308.632Z" fill="#EBF0FD" style="fill:#EBF0FD;fill:color(display-p3 0.9216 0.9412 0.9922);fill-opacity:1;"/>
<path d="M77.891 258.633C76.1775 269.636 72.8538 282.478 66.4178 292.878L28.8912 289.325C25.7068 282.674 23.2088 276.096 21.2528 269.884C14.3988 248.12 14.1717 230.853 14.1717 230.853C14.1717 230.853 26.5842 256.774 32.3131 267.69C34.0317 270.964 35.1465 272.889 35.1465 272.357C35.1465 271.996 35.2188 270.075 35.3375 267.091C35.9981 251.021 38.0884 204.167 38.0884 204.167L48.3694 264.499L49.128 268.95L50.1345 264.148L62.738 204.167V270.427L67.2798 260.745L79.6613 234.349C79.6613 234.349 79.9968 245.098 77.891 258.633Z" fill="#6ED7C2" style="fill:#6ED7C2;fill:color(display-p3 0.4314 0.8431 0.7608);fill-opacity:1;"/>
<path d="M77.891 258.633C76.1775 269.636 72.8538 282.478 66.4178 292.878L28.8912 289.325C25.7068 282.675 23.2088 276.096 21.2528 269.884L32.3131 267.69C34.0317 270.964 35.1465 272.889 35.1465 272.357C35.1465 271.996 35.2188 270.075 35.3375 267.091L48.3694 264.499L49.128 268.95L50.1345 264.148L62.738 261.644V270.427L67.2798 260.745L77.891 258.633Z" fill="#4DADBE" style="fill:#4DADBE;fill:color(display-p3 0.3020 0.6784 0.7451);fill-opacity:1;"/>
<path d="M78.753 277.988H15.1038L24.6147 308.632H69.243L78.753 277.988Z" fill="white" style="fill:white;fill-opacity:1;"/>
</svg>
